:SAMPLES-PER-SECOND 30
:FULLY-SPECIFIED
:DEGREES
211
root  34.88353219 36.47079768 -14.66786092 12.89635849 14.99988461 5.557375908
lowerback  -8.536629677 3.886739969 4.260529995
upperback  -4.614699841 4.51169014 -4.98348999
thorax  0.7123050094 1.981349945 -7.187560081
lowerneck  -15.88389969 -1.971850038 1.449040055
upperneck  13.16759968 -4.261630058 6.214029789
head  6.751559734 -1.527105451 1.321265817
lclavicle  0 -4.497500157e-015 -2.743230041e-014
lhumerus  -44.36769867 27.4409008 66.17839813
lradius  -0.4015896916 -6.507048965e-006 26.2308979
lwrist  4.824992743e-007 -3.790274832e-007 -33.85689926
lhand  -4.443185217e-031 -37.37039948 -10.66049957
lfingers  90 7.125020027 -90
lthumb  95.03337464 -25.47951702 101.5706858
rclavicle  0 -4.497500157e-015 -2.743230041e-014
rhumerus  67.98660278 -3.254158497 -52.98989868
rradius  -5.16745672e-007 2.214343908e-008 43.90140152
rwrist  1.129822067e-006 0.001802438172 -162.1609955
rhand  -3.541852744e-031 4.460519791 -7.899250031
rfingers  -90 -7.125020027 -90
rthumb  -85.24437172 -8.218890835 -59.80282813
rfemur  -15.14552307 9.6851511 14.57887268
rtibia  -3.820850611 2.180092335 25.04820061
rfoot  -3.3683393 -13.28723145 -46.24546432
rtoes  3.84332491 19.64210449 -101.301854
lfemur  -13.16948891 -23.47474098 -18.84188652
ltibia  3.782146215 2.951167107 14.25693798
lfoot  0.6606134176 -30.49318314 27.04969597
ltoes  -8.711290537 -18.07349113 -116.284367
212
root  34.88781546 36.47230253 -14.66376537 12.87159252 14.89268494 5.527125359
lowerback  -8.518670082 3.842909813 4.235729694
upperback  -4.610960007 4.455120087 -4.968639851
thorax  0.6945790052 1.952859998 -7.164720058
lowerneck  -15.90670013 -1.937639952 1.447649956
upperneck  13.16219997 -4.217700005 6.226890087
head  6.755859852 -1.505459905 1.325309992
lclavicle  0 -4.497500157e-015 -2.743230041e-014
lhumerus  -44.34949875 27.26449966 66.32129669
lradius  -0.3997493684 -6.507048965e-006 26.36660004
lwrist  4.824992743e-007 -3.790274832e-007 -33.75030136
lhand  -4.443108176e-031 -37.36909866 -10.60400009
lfingers  90 7.125020027 -90
lthumb  95.02018902 -25.42417991 101.56385
rclavicle  0 -4.497500157e-015 -2.743230041e-014
rhumerus  67.34980011 -3.050320148 -52.05339813
rradius  -5.16745672e-007 2.214343908e-008 44.83720016
rwrist  1.129822067e-006 0.001802438172 -163.0619965
rhand  -1.770856439e-031 4.431419849 -7.874579906
rfingers  -90 -7.125020027 -90
rthumb  -85.23837099 -8.238225419 -59.82938974
rfemur  -15.09710217 9.692695618 14.56339836
rtibia  -3.775331736 2.175091982 24.96728134
rfoot  -3.327371836 -13.33528519 -46.18163681
rtoes  3.858956542 19.639156 -101.3483602
lfemur  -13.11073971 -23.46596146 -18.84939575
ltibia  3.798884392 2.941049814 14.21813202
lfoot  0.6714420319 -30.45829391 27.1526432
ltoes  -8.700289066 -18.07865246 -116.2489103
213
root  34.89102641 36.47394556 -14.65733295 12.79819965 14.82173252 5.490670204
lowerback  -8.518939972 3.792079926 4.176120281
upperback  -4.637519836 4.387239933 -4.94520998
thorax  0.6505339742 1.916129947 -7.113949776
lowerneck  -15.86979961 -1.891309977 1.467620015
upperneck  13.16189957 -4.139369965 6.137430191
head  6.744530201 -1.473799825 1.301939964
lclavicle  0 -4.497500157e-015 -2.743230041e-014
lhumerus  -44.29880142 26.9871006 66.56819916
lradius  -0.3978965282 -6.507048965e-006 26.47369766
lwrist  4.824992743e-007 -3.790274832e-007 -33.33509827
lhand  -4.444388229e-031 -37.39070129 -10.55819988
lfingers  90 7.125020027 -90
lthumb  95.02010057 -25.37856799 101.5825289
rclavicle  0 -4.497500157e-015 -2.743230041e-014
rhumerus  66.75779724 -2.92697072 -51.51309967
rradius  -5.16745672e-007 2.214343908e-008 45.68040085
rwrist  1.129822067e-006 0.001802438172 -163.9219971
rhand  -1.770892478e-031 4.44644022 -7.972280025
rfingers  -90 -7.125020027 -90
rthumb  -85.28466239 -8.154743993 -59.82188259
rfemur  -14.96700668 9.499173164 14.56887341
rtibia  -3.708263397 2.106477976 24.84046555
rfoot  -3.269254446 -13.55127335 -46.00107574
rtoes  3.867786116 19.63748502 -101.3746323
lfemur  -12.97321892 -23.42058945 -18.88224983
ltibia  3.827022314 2.945651531 14.14894009
lfoot  0.6835097075 -30.46447372 27.23766327
ltoes  -8.665162904 -18.09507707 -116.1357675
214
root  34.895562 36.47415281 -14.65514025 12.76533794 14.71320724 5.463569164
lowerback  -8.523718834 3.728509665 4.082299709
upperback  -4.652919769 4.305840015 -4.900770187
thorax  0.6148489714 1.874359965 -7.021910191
lowerneck  -15.84090042 -1.819239974 1.554280043
upperneck  13.19180012 -4.039150238 6.014729977
head  6.742000103 -1.430349946 1.259220004
lclavicle  0 -4.497500157e-015 -2.743230041e-014
lhumerus  -44.34619904 26.79080009 66.71980286
lradius  -0.3960312307 -6.507048965e-006 26.62170029
lwrist  4.824992743e-007 -3.790274832e-007 -32.98360062
lhand  -4.445859391e-031 -37.41550064 -10.57359982
lfingers  90 7.125020027 -90
lthumb  95.0351394 -25.39272739 101.6105755
rclavicle  0 -4.497500157e-015 -2.743230041e-014
rhumerus  66.08239746 -2.766489983 -50.91650009
rradius  -5.16745672e-007 2.214343908e-008 46.6167984
rwrist  1.129822067e-006 0.001802438172 -165.1809998
rhand  -1.770893439e-031 4.446839809 -8.036390305
rfingers  -90 -7.125020027 -90
rthumb  -85.31710172 -8.099384991 -59.82607519
rfemur  -14.94567299 9.490136147 14.5605402
rtibia  -3.675274134 2.111950874 24.81258774
rfoot  -3.227694273 -13.59209251 -45.86641693
rtoes  3.866077314 19.63780872 -101.3695477
lfemur  -12.89161587 -23.43161201 -18.89914894
ltibia  3.854168892 2.934875011 14.08315754
lfoot  0.7046912313 -30.41489983 27.38713264
ltoes  -8.663741479 -18.09573995 -116.1311911
215
root  34.89982124 36.47761908 -14.65214857 12.75765705 14.60694218 5.426080227
lowerback  -8.519649506 3.666369915 4.008379459
upperback  -4.639150143 4.228660107 -4.866759777
thorax  0.6077859998 1.837239981 -6.951459885
lowerneck  -15.85569954 -1.779299974 1.595749974
upperneck  13.1814003 -3.988270044 5.982560158
head  6.738399982 -1.406290174 1.247410059
lclavicle  0 -4.497500157e-015 -2.743230041e-014
lhumerus  -44.32229996 26.64959908 66.87190247
lradius  -0.3941346407 -6.507048965e-006 26.70759964
lwrist  4.824992743e-007 -3.790274832e-007 -32.67829895
lhand  -4.442326759e-031 -37.35589981 -10.59930038
lfingers  90 7.125020027 -90
lthumb  95.01295254 -25.42010614 101.5492271
rclavicle  0 -4.497500157e-015 -2.743230041e-014
rhumerus  65.43039703 -2.535468817 -50.45439911
rradius  -5.16745672e-007 2.214343908e-008 47.6128006
rwrist  1.129822067e-006 0.001802438172 -165.7929993
rhand  -1.770790849e-031 4.403950214 -7.954810143
rfingers  -90 -7.125020027 -90
rthumb  -85.28527366 -8.166892932 -59.8619242
rfemur  -14.94001007 9.540595055 14.55674839
rtibia  -3.637247324 2.125253439 24.76400375
rfoot  -3.200995922 -13.61949825 -45.82860184
rtoes  3.880672848 19.63503907 -101.4129803
lfemur  -12.8797245 -23.3928318 -18.88471985
ltibia  3.859508038 2.919698238 14.07430744
lfoot  0.6994712949 -30.3645916 27.4448185
ltoes  -8.64364215 -18.10509876 -116.0664972
216
root  34.90399638 36.48045758 -14.64651814 12.73759365 14.49632359 5.405726433
lowerback  -8.500590324 3.615679979 3.95821023
upperback  -4.640039921 4.164330006 -4.838079929
thorax  0.5813270211 1.804929972 -6.900109768
lowerneck  -15.82470036 -1.741129994 1.714869976
upperneck  13.13379955 -3.938319921 5.870800018
head  6.711760044 -1.387089849 1.197660089
lclavicle  0 -4.497500157e-015 -2.743230041e-014
lhumerus  -44.30530167 26.51269913 67.0019989
lradius  -0.3922065794 -6.507048965e-006 26.76589966
lwrist  4.824992743e-007 -3.790274832e-007 -32.35639954
lhand  -0 -37.37829971 -10.54819965
lfingers  90 7.125020027 -90
lthumb  95.01210199 -25.36912587 101.5683905
rclavicle  0 -4.497500157e-015 -2.743230041e-014
rhumerus  64.67559814 -2.369359732 -49.76620102
rradius  -5.16745672e-007 2.214343908e-008 48.75460052
rwrist  1.129822067e-006 0.001802438172 -166.9320068
rhand  -3.541502064e-031 4.387189865 -7.778920174
rfingers  -90 -7.125020027 -90
rthumb  -85.19982062 -8.3178365 -59.8654545
rfemur  -14.9000473 9.5742836 14.53294849
rtibia  -3.593933344 2.090556383 24.69978142
rfoot  -3.181273222 -13.73319149 -45.79382706
rtoes  3.85845808 19.63925021 -101.3468771
lfemur  -12.83866215 -23.38084221 -18.90384483
ltibia  3.869742632 2.875812292 14.05308914
lfoot  0.6799254417 -30.25639153 27.48991394
ltoes  -8.678177776 -18.08900119 -116.1776774
217
root  34.90787416 36.48220573 -14.64168218 12.71240234 14.38403511 5.37345171
lowerback  -8.481209755 3.562040091 3.895559788
upperback  -4.644279957 4.096519947 -4.80452013
thorax  0.5497059822 1.770730019 -6.836830139
lowerneck  -15.81820011 -1.687440038 1.610669971
upperneck  13.16390038 -3.861939907 5.969309807
head  6.722690105 -1.346849918 1.254259944
lclavicle  0 -4.497500157e-015 -2.743230041e-014
lhumerus  -44.35960007 26.5114994 67.02210236
lradius  -0.3902659416 -6.507048965e-006 26.81329918
lwrist  4.824992743e-007 -3.790274832e-007 -32.42409897
lhand  -4.444589754e-031 -37.39410019 -10.5710001
lfingers  90 7.125020027 -90
lthumb  95.02452803 -25.3909176 101.5873966
rclavicle  0 -4.497500157e-015 -2.743230041e-014
rhumerus  63.95319748 -2.235519171 -49.39820099
rradius  -5.16745672e-007 2.214343908e-008 49.87360001
rwrist  1.129822067e-006 0.001802438172 -167.8619995
rhand  -1.770604326e-031 4.32487011 -7.792300224
rfingers  -90 -7.125020027 -90
rthumb  -85.22064726 -8.302040066 -59.92713397
rfemur  -14.85259724 9.650281906 14.52310944
rtibia  -3.549247026 2.111028194 24.62262154
rfoot  -3.128722668 -13.72890472 -45.74284744
rtoes  3.853473296 19.64019169 -101.3320461
lfemur  -12.80195808 -23.38575363 -18.90825272
ltibia  3.869302511 2.838149548 14.05820465
lfoot  0.6762226224 -30.18147469 27.57045937
ltoes  -8.700095809 -18.07874306 -116.2482876
218
root  34.91167384 36.48241899 -14.63767525 12.6762886 14.25038433 5.34288168
lowerback  -8.499329567 3.521859884 3.877659798
upperback  -4.629439831 4.044109821 -4.788539886
thorax  0.5651599765 1.745689988 -6.81388998
lowerneck  -15.84000015 -1.622370005 1.567309976
upperneck  13.18220043 -3.770050049 5.996920109
head  6.731410027 -1.301130056 1.27974999
lclavicle  0 -4.497500157e-015 -2.743230041e-014
lhumerus  -44.39410019 26.58950043 66.95980072
lradius  -0.3883126378 -6.507048965e-006 26.82840157
lwrist  4.824992743e-007 -3.790274832e-007 -32.77220154
lhand  -4.44169951e-031 -37.34529877 -10.59710026
lfingers  90 7.125020027 -90
lthumb  95.00757275 -25.41834394 101.5378301
rclavicle  0 -4.497500157e-015 -2.743230041e-014
rhumerus  63.17549896 -2.046368837 -49.01649857
rradius  -5.16745672e-007 2.214343908e-008 51.14559937
rwrist  1.129822067e-006 0.001802438172 -168.322998
rhand  -3.541221088e-031 4.327529907 -7.573029995
rfingers  -90 -7.125020027 -90
rthumb  -85.10889628 -8.49201778 -59.90825205
rfemur  -14.80369473 9.693665504 14.5092659
rtibia  -3.502576351 2.102033854 24.55461502
rfoot  -3.08936882 -13.79970455 -45.67147064
rtoes  3.839229426 19.64287493 -101.2896705
lfemur  -12.74889565 -23.36483955 -18.91406822
ltibia  3.877847433 2.827112436 14.03808594
lfoot  0.6948059797 -30.15690994 27.69667244
ltoes  -8.730993875 -18.0642268 -116.3478934
